# xmcd
#
# Track frame offsets:
#	150
#	10145
#	22644
#	31825
#	43875
#	56730
#	68276
#	79263
#	93456
#	102506
#	117682
#	128197
#	139493
#	150574
#	161271
#	181268
#	194680
#	208007
#	219987
#	232603
#	240590
#	252307
#	263407
#	274656
#
# Disc length: 3777 seconds
#
# Revision: 0
# Processed by: cddbd v1.5.2PL0 Copyright (c) Steve Scherf et al.
# Submitted via: EasyCDDAExtractor 8.2.3.1
#
DISCID=420ebf18
DTITLE=Liz Anderson - Promises Promises -68 and Big Girls Don't Cry -68
DYEAR=1968
DGENRE=Country
TTITLE0=Promises  Promises
TTITLE1=The Worst Is Yet To Come
TTITLE2=No Other Time
TTITLE3=Crying
TTITLE4=Love Of The Common People
TTITLE5=A Penny For Your Thoughts
TTITLE6=I've Been Everywhere
TTITLE7=Paper Mansions
TTITLE8=Two Rolls Of Scotch Tape
TTITLE9=Sing Me A Sad Song
TTITLE10=A Hundred Times Today
TTITLE11=Lie A Little
TTITLE12=Big Girls Don't Cry
TTITLE13=Pick Of The Week
TTITLE14=Honey
TTITLE15=Just Between The Two Of Us
TTITLE16=I Live To Love You
TTITLE17=Strangers
TTITLE18=The Pillow That Whispers
TTITLE19=Ring Of Fire
TTITLE20=Come On Home
TTITLE21=Wandering Mind
TTITLE22=You Mean The World To Me
TTITLE23=I Keep Forgettin' (That I Forgot About You)
EXTD=
EXTT0=
EXTT1=
EXTT2=
EXTT3=
EXTT4=
EXTT5=
EXTT6=
EXTT7=
EXTT8=
EXTT9=
EXTT10=
EXTT11=
EXTT12=
EXTT13=
EXTT14=
EXTT15=
EXTT16=
EXTT17=
EXTT18=
EXTT19=
EXTT20=
EXTT21=
EXTT22=
EXTT23=
PLAYORDER=
